<mxfile host="app.diagrams.net" modified="2020-08-22T17:22:21.461Z" agent="5.0 (Macintosh; Intel Mac OS X 10_15_6) AppleWebKit/537.36 (KHTML, like Gecko) Chrome/84.0.4147.135 Safari/537.36" etag="OPP-o7C24Yvs7NNViZQT" version="13.6.3" type="github">
  <diagram id="vslZhce6Klsg4J_S0lZ4" name="Page-1">
    <mxGraphModel dx="1298" dy="762" grid="1" gridSize="10" guides="1" tooltips="1" connect="1" arrows="1" fold="1" page="1" pageScale="1" pageWidth="827" pageHeight="1169" math="0" shadow="0">
      <root>
        <mxCell id="0" />
        <mxCell id="1" parent="0" />
        <mxCell id="vvAS3Bj70sWV_6ggNeVX-1" value="" style="rounded=0;whiteSpace=wrap;html=1;sketch=0;dashed=1;" parent="1" vertex="1">
          <mxGeometry x="159" y="230" width="610" height="90" as="geometry" />
        </mxCell>
        <mxCell id="vvAS3Bj70sWV_6ggNeVX-18" value="" style="rounded=0;whiteSpace=wrap;html=1;sketch=0;" parent="1" vertex="1">
          <mxGeometry x="159" y="380" width="610" height="90" as="geometry" />
        </mxCell>
        <mxCell id="GM1VmOwsyjMfOpJYy5iS-2" value="1MB" style="rounded=0;whiteSpace=wrap;html=1;fillColor=#E6E6E6;" vertex="1" parent="1">
          <mxGeometry x="170" y="391.25" width="370" height="67.5" as="geometry" />
        </mxCell>
        <mxCell id="LHr2sBKM0kDGiqUmLX_8-3" value="" style="rounded=0;whiteSpace=wrap;html=1;sketch=0;" parent="1" vertex="1">
          <mxGeometry x="159" y="70" width="610" height="90" as="geometry" />
        </mxCell>
        <mxCell id="GM1VmOwsyjMfOpJYy5iS-3" style="edgeStyle=orthogonalEdgeStyle;rounded=0;orthogonalLoop=1;jettySize=auto;html=1;exitX=0.5;exitY=1;exitDx=0;exitDy=0;" edge="1" parent="1" source="GM1VmOwsyjMfOpJYy5iS-1" target="GM1VmOwsyjMfOpJYy5iS-2">
          <mxGeometry relative="1" as="geometry" />
        </mxCell>
        <mxCell id="GM1VmOwsyjMfOpJYy5iS-4" value="&lt;font style=&quot;font-size: 15px&quot;&gt;映射&lt;/font&gt;" style="edgeLabel;html=1;align=center;verticalAlign=middle;resizable=0;points=[];" vertex="1" connectable="0" parent="GM1VmOwsyjMfOpJYy5iS-3">
          <mxGeometry x="-0.6684" relative="1" as="geometry">
            <mxPoint y="10" as="offset" />
          </mxGeometry>
        </mxCell>
        <mxCell id="GM1VmOwsyjMfOpJYy5iS-1" value="1MB" style="rounded=0;whiteSpace=wrap;html=1;fillColor=#E6E6E6;" vertex="1" parent="1">
          <mxGeometry x="170" y="82.5" width="370" height="67.5" as="geometry" />
        </mxCell>
        <mxCell id="vvAS3Bj70sWV_6ggNeVX-9" value="&lt;font style=&quot;font-size: 20px&quot;&gt;用户态&lt;/font&gt;" style="text;strokeColor=none;fillColor=none;html=1;fontSize=24;fontStyle=1;verticalAlign=middle;align=center;rounded=0;sketch=0;" parent="1" vertex="1">
          <mxGeometry x="50" y="95" width="100" height="40" as="geometry" />
        </mxCell>
        <mxCell id="vvAS3Bj70sWV_6ggNeVX-10" value="&lt;font style=&quot;font-size: 20px&quot; color=&quot;#b3b3b3&quot;&gt;内核态&lt;/font&gt;" style="text;strokeColor=none;fillColor=none;html=1;fontSize=24;fontStyle=1;verticalAlign=middle;align=center;rounded=0;sketch=0;dashed=1;horizontal=1;whiteSpace=wrap;" parent="1" vertex="1">
          <mxGeometry x="50" y="255" width="100" height="40" as="geometry" />
        </mxCell>
        <mxCell id="vvAS3Bj70sWV_6ggNeVX-12" value="&lt;font style=&quot;font-size: 20px&quot;&gt;磁&amp;nbsp; &amp;nbsp;盘&lt;/font&gt;" style="text;strokeColor=none;fillColor=none;html=1;fontSize=24;fontStyle=1;verticalAlign=middle;align=center;rounded=0;sketch=0;" parent="1" vertex="1">
          <mxGeometry x="50" y="405" width="100" height="40" as="geometry" />
        </mxCell>
        <mxCell id="vvAS3Bj70sWV_6ggNeVX-14" value="Hello Mmap" style="rounded=1;whiteSpace=wrap;html=1;sketch=0;fillColor=#d5e8d4;strokeColor=#82b366;" parent="1" vertex="1">
          <mxGeometry x="414" y="88.75" width="100" height="55" as="geometry" />
        </mxCell>
        <mxCell id="vvAS3Bj70sWV_6ggNeVX-19" value="Hello Mmap" style="rounded=1;whiteSpace=wrap;html=1;sketch=0;fillColor=#CCCCCC;" parent="1" vertex="1">
          <mxGeometry x="414" y="397.5" width="100" height="55" as="geometry" />
        </mxCell>
      </root>
    </mxGraphModel>
  </diagram>
</mxfile>
